<mxfile host="app.diagrams.net" modified="2023-10-24T10:51:03.778Z" agent="Mozilla/5.0 (Windows NT 10.0; Win64; x64) AppleWebKit/537.36 (KHTML, like Gecko) Chrome/118.0.0.0 Safari/537.36" etag="c7q7rV76IvBHtvc6OrdW" version="22.0.6" type="github">
  <diagram name="Page-1" id="10a91c8b-09ff-31b1-d368-03940ed4cc9e">
    <mxGraphModel dx="500" dy="258" grid="1" gridSize="10" guides="1" tooltips="1" connect="1" arrows="1" fold="1" page="1" pageScale="1" pageWidth="1100" pageHeight="850" background="none" math="0" shadow="0">
      <root>
        <mxCell id="0" />
        <mxCell id="1" parent="0" />
        <mxCell id="wJkFaXTZo2fUUphFk1os-10" style="edgeStyle=orthogonalEdgeStyle;rounded=0;orthogonalLoop=1;jettySize=auto;html=1;exitX=0;exitY=0.5;exitDx=0;exitDy=0;entryX=1;entryY=0.5;entryDx=0;entryDy=0;" edge="1" parent="1" source="wJkFaXTZo2fUUphFk1os-8" target="wJkFaXTZo2fUUphFk1os-9">
          <mxGeometry relative="1" as="geometry" />
        </mxCell>
        <mxCell id="wJkFaXTZo2fUUphFk1os-8" value="" style="rounded=1;whiteSpace=wrap;html=1;dashed=1;" vertex="1" parent="1">
          <mxGeometry x="200" y="18" width="260" height="40" as="geometry" />
        </mxCell>
        <mxCell id="wJkFaXTZo2fUUphFk1os-11" style="edgeStyle=orthogonalEdgeStyle;rounded=0;orthogonalLoop=1;jettySize=auto;html=1;entryX=0.5;entryY=0;entryDx=0;entryDy=0;" edge="1" parent="1" source="wJkFaXTZo2fUUphFk1os-2" target="wJkFaXTZo2fUUphFk1os-5">
          <mxGeometry relative="1" as="geometry" />
        </mxCell>
        <mxCell id="wJkFaXTZo2fUUphFk1os-2" value="SET" style="rounded=1;whiteSpace=wrap;html=1;fillColor=#fff2cc;strokeColor=#d6b656;fillStyle=auto;" vertex="1" parent="1">
          <mxGeometry x="210" y="28" width="60" height="20" as="geometry" />
        </mxCell>
        <mxCell id="wJkFaXTZo2fUUphFk1os-12" style="edgeStyle=orthogonalEdgeStyle;rounded=0;orthogonalLoop=1;jettySize=auto;html=1;entryX=0.5;entryY=0;entryDx=0;entryDy=0;" edge="1" parent="1" source="wJkFaXTZo2fUUphFk1os-3" target="wJkFaXTZo2fUUphFk1os-6">
          <mxGeometry relative="1" as="geometry" />
        </mxCell>
        <mxCell id="wJkFaXTZo2fUUphFk1os-3" value="name" style="rounded=1;whiteSpace=wrap;html=1;fillColor=#fff2cc;strokeColor=#d6b656;" vertex="1" parent="1">
          <mxGeometry x="280" y="28" width="60" height="20" as="geometry" />
        </mxCell>
        <mxCell id="wJkFaXTZo2fUUphFk1os-4" value="createsequence" style="rounded=1;whiteSpace=wrap;html=1;fillColor=#fff2cc;strokeColor=#d6b656;" vertex="1" parent="1">
          <mxGeometry x="350" y="28" width="100" height="20" as="geometry" />
        </mxCell>
        <mxCell id="wJkFaXTZo2fUUphFk1os-5" value="$3&lt;br&gt;SET" style="rounded=1;whiteSpace=wrap;html=1;fillColor=#dae8fc;strokeColor=#6c8ebf;" vertex="1" parent="1">
          <mxGeometry x="210" y="78" width="60" height="30" as="geometry" />
        </mxCell>
        <mxCell id="wJkFaXTZo2fUUphFk1os-6" value="$4&lt;br&gt;name" style="rounded=1;whiteSpace=wrap;html=1;fillColor=#dae8fc;strokeColor=#6c8ebf;" vertex="1" parent="1">
          <mxGeometry x="280" y="78" width="60" height="30" as="geometry" />
        </mxCell>
        <mxCell id="wJkFaXTZo2fUUphFk1os-7" value="$12&lt;br&gt;createsequence" style="rounded=1;whiteSpace=wrap;html=1;fillColor=#dae8fc;strokeColor=#6c8ebf;" vertex="1" parent="1">
          <mxGeometry x="350" y="78" width="100" height="30" as="geometry" />
        </mxCell>
        <mxCell id="wJkFaXTZo2fUUphFk1os-9" value="*3" style="rounded=1;whiteSpace=wrap;html=1;fillColor=#dae8fc;strokeColor=#6c8ebf;" vertex="1" parent="1">
          <mxGeometry x="120" y="23" width="60" height="30" as="geometry" />
        </mxCell>
        <mxCell id="wJkFaXTZo2fUUphFk1os-13" style="edgeStyle=orthogonalEdgeStyle;rounded=0;orthogonalLoop=1;jettySize=auto;html=1;entryX=0.501;entryY=-0.102;entryDx=0;entryDy=0;entryPerimeter=0;" edge="1" parent="1" source="wJkFaXTZo2fUUphFk1os-4" target="wJkFaXTZo2fUUphFk1os-7">
          <mxGeometry relative="1" as="geometry" />
        </mxCell>
        <mxCell id="wJkFaXTZo2fUUphFk1os-17" style="edgeStyle=orthogonalEdgeStyle;rounded=0;orthogonalLoop=1;jettySize=auto;html=1;entryX=0.5;entryY=0;entryDx=0;entryDy=0;" edge="1" parent="1" source="wJkFaXTZo2fUUphFk1os-14" target="wJkFaXTZo2fUUphFk1os-15">
          <mxGeometry relative="1" as="geometry" />
        </mxCell>
        <mxCell id="wJkFaXTZo2fUUphFk1os-14" value="AOF 缓冲区" style="rounded=1;whiteSpace=wrap;html=1;fillColor=#dae8fc;strokeColor=#6c8ebf;" vertex="1" parent="1">
          <mxGeometry x="10" y="20" width="90" height="30" as="geometry" />
        </mxCell>
        <mxCell id="wJkFaXTZo2fUUphFk1os-18" style="edgeStyle=orthogonalEdgeStyle;rounded=0;orthogonalLoop=1;jettySize=auto;html=1;entryX=0.5;entryY=0;entryDx=0;entryDy=0;" edge="1" parent="1" source="wJkFaXTZo2fUUphFk1os-15" target="wJkFaXTZo2fUUphFk1os-16">
          <mxGeometry relative="1" as="geometry" />
        </mxCell>
        <mxCell id="wJkFaXTZo2fUUphFk1os-15" value="OS 缓冲区" style="rounded=1;whiteSpace=wrap;html=1;fillColor=#ffe6cc;strokeColor=#d79b00;" vertex="1" parent="1">
          <mxGeometry x="10" y="80" width="90" height="30" as="geometry" />
        </mxCell>
        <mxCell id="wJkFaXTZo2fUUphFk1os-16" value="磁盘" style="rounded=1;whiteSpace=wrap;html=1;fillColor=#f8cecc;strokeColor=#b85450;" vertex="1" parent="1">
          <mxGeometry x="10" y="140" width="90" height="30" as="geometry" />
        </mxCell>
        <mxCell id="wJkFaXTZo2fUUphFk1os-20" value="fsync" style="text;html=1;align=center;verticalAlign=middle;resizable=0;points=[];autosize=1;strokeColor=none;fillColor=none;" vertex="1" parent="1">
          <mxGeometry x="55" y="108" width="50" height="30" as="geometry" />
        </mxCell>
        <mxCell id="wJkFaXTZo2fUUphFk1os-21" value="write" style="text;html=1;align=center;verticalAlign=middle;resizable=0;points=[];autosize=1;strokeColor=none;fillColor=none;" vertex="1" parent="1">
          <mxGeometry x="55" y="50" width="50" height="30" as="geometry" />
        </mxCell>
      </root>
    </mxGraphModel>
  </diagram>
</mxfile>
